<svg xmlns="http://www.w3.org/2000/svg" version="1.1" width="640" height="480" viewBox="0 0 640 480">
<g transform="matrix(0.92 0 0 0.92 315.75 282.93)"  >
<g style=""   >
		<g transform="matrix(1 0 0 1 -8.23 275.94)"  >
<path style="stroke: none; stroke-width: 1; stroke-dasharray: none; stroke-linecap: butt; stroke-dashoffset: 0; stroke-linejoin: miter; stroke-miterlimit: 4; fill: rgb(242,242,242); fill-rule: nonzero; opacity: 1;"  transform=" translate(-591.77, -725.94)" d="M 577.64736 743.9862 a 1.2164 1.2164 0 0 0 0.88158 -2.10832 l -0.08335 -0.33136 l 0.03312 -0.07954 a 3.26655 3.26655 0 0 1 6.02554 0.02239 c 0.98551 2.37356 2.24024 4.75117 2.54918 7.26082 a 9.66368 9.66368 0 0 1 -0.16964 3.32354 a 38.74392 38.74392 0 0 0 3.52438 -16.09157 a 37.39507 37.39507 0 0 0 -0.232 -4.17178 q -0.19217 -1.70334 -0.53318 -3.38243 a 39.19271 39.19271 0 0 0 -7.77227 -16.61089 a 10.4303 10.4303 0 0 1 -4.33795 -4.50066 a 7.95618 7.95618 0 0 1 -0.72357 -2.17417 a 9.81874 9.81874 0 0 0 0.637 -3.3859 c 0.29431 -0.44659 0.82106 -0.66859 1.14248 -1.10437 c 1.59857 -2.16733 3.801 -1.78891 4.95075 1.15632 c 2.45615 1.23962 2.47992 3.29545 0.97284 5.27269 c -0.95881 1.25793 -1.09055 2.96005 -1.93184 4.30676 c 0.08657 0.1108 0.17658 0.21813 0.26313 0.32893 a 39.44636 39.44636 0 0 1 4.11715 6.52255 a 16.39792 16.39792 0 0 1 0.979 -7.61655 c 0.937 -2.26055 2.69342 -4.16438 4.24012 -6.11862 a 3.36575 3.36575 0 0 1 5.99479 1.65271 l 0.00928 0.0864 q -0.34461 0.1944 -0.67465 0.41269 a 1.65 1.65 0 0 0 0.66523 3.00262 l 0.03365 0.00518 a 16.41681 16.41681 0 0 1 -0.43275 2.45462 c 1.98421 7.67347 -2.29956 10.46831 -8.41622 10.59386 c -0.135 0.06923 -0.26661 0.13846 -0.40163 0.20427 a 40.26319 40.26319 0 0 1 2.16725 10.19917 a 38.18792 38.18792 0 0 1 -0.0277 6.1659 l 0.01039 -0.07269 a 10.09082 10.09082 0 0 1 3.44475 -5.82663 c 2.65092 -2.17763 6.39617 -2.97954 9.25605 -4.72993 a 1.89376 1.89376 0 0 1 2.90049 1.84232 l -0.0117 0.07644 a 11.0834 11.0834 0 0 0 -1.24286 0.59891 q -0.34461 0.19444 -0.67465 0.41269 a 1.65 1.65 0 0 0 0.66523 3.00265 l 0.03367 0.00517 l 0.06921 0.01041 a 16.43129 16.43129 0 0 1 -3.02234 4.7326 c -1.24068 6.69864 -6.56942 7.33419 -12.2695 5.38348 h -0.00348 a 40.25033 40.25033 0 0 1 -2.70387 7.89347 h -9.65908 c -0.03465 -0.10732 -0.06579 -0.21812 -0.097 -0.32546 a 10.97505 10.97505 0 0 0 2.67273 -0.1592 c -0.71665 -0.87938 -1.43328 -1.76569 -2.14994 -2.645 a 0.60048 0.60048 0 0 1 -0.045 -0.05193 c -0.36351 -0.45 -0.73049 -0.89666 -1.094 -1.34671 l -0.00019 -0.00055 a 16.075 16.075 0 0 1 0.471 -4.09507 Z" stroke-linecap="round" />
</g>
		<g transform="matrix(1 0 0 1 -277.14 275.94)"  >
<path style="stroke: none; stroke-width: 1; stroke-dasharray: none; stroke-linecap: butt; stroke-dashoffset: 0; stroke-linejoin: miter; stroke-miterlimit: 4; fill: rgb(242,242,242); fill-rule: nonzero; opacity: 1;"  transform=" translate(-322.86, -725.94)" d="M 336.98262 743.9862 a 1.2164 1.2164 0 0 1 -0.88157 -2.10832 l 0.08335 -0.33136 l -0.03312 -0.07954 a 3.26656 3.26656 0 0 0 -6.02555 0.02239 c -0.98551 2.37356 -2.24023 4.75117 -2.54918 7.26082 a 9.66393 9.66393 0 0 0 0.16964 3.32354 a 38.74391 38.74391 0 0 1 -3.52437 -16.09157 a 37.39507 37.39507 0 0 1 0.232 -4.17178 q 0.19215 -1.70334 0.53317 -3.38243 a 39.19285 39.19285 0 0 1 7.77228 -16.61089 a 10.43034 10.43034 0 0 0 4.33794 -4.50066 a 7.95618 7.95618 0 0 0 0.72357 -2.17417 a 9.819 9.819 0 0 1 -0.637 -3.3859 c -0.2943 -0.44659 -0.82105 -0.66859 -1.14248 -1.10437 c -1.59857 -2.16733 -3.801 -1.78891 -4.95074 1.15632 c -2.45615 1.23962 -2.47992 3.29545 -0.97284 5.27269 c 0.95881 1.25793 1.09055 2.96005 1.93184 4.30676 c -0.08657 0.1108 -0.17659 0.21813 -0.26313 0.32893 a 39.4457 39.4457 0 0 0 -4.11715 6.52255 a 16.39805 16.39805 0 0 0 -0.979 -7.61655 c -0.93706 -2.26055 -2.69343 -4.16438 -4.24012 -6.11862 a 3.36576 3.36576 0 0 0 -5.9948 1.65271 l -0.00927 0.0864 q 0.34459 0.1944 0.67464 0.41269 a 1.65 1.65 0 0 1 -0.66523 3.00262 l -0.03364 0.00518 a 16.41681 16.41681 0 0 0 0.43275 2.45462 c -1.98422 7.67347 2.29956 10.46831 8.41622 10.59386 c 0.135 0.06923 0.2666 0.13846 0.40163 0.20427 a 40.262 40.262 0 0 0 -2.16725 10.19917 a 38.18677 38.18677 0 0 0 0.0277 6.1659 l -0.0104 -0.07269 a 10.09082 10.09082 0 0 0 -3.44475 -5.82663 c -2.65092 -2.17763 -6.39617 -2.97954 -9.256 -4.72993 a 1.89376 1.89376 0 0 0 -2.90049 1.84232 l 0.0117 0.07644 a 11.08424 11.08424 0 0 1 1.24286 0.59891 q 0.3446 0.19444 0.67465 0.41269 a 1.65 1.65 0 0 1 -0.66524 3.00265 l -0.03367 0.00517 l -0.0692 0.01041 a 16.43108 16.43108 0 0 0 3.02234 4.7326 c 1.24068 6.69864 6.56941 7.33419 12.2695 5.38348 h 0.00347 a 40.251 40.251 0 0 0 2.70387 7.89347 h 9.65909 c 0.03464 -0.10732 0.06579 -0.21812 0.097 -0.32546 a 10.97508 10.97508 0 0 1 -2.67273 -0.1592 c 0.71666 -0.87938 1.43329 -1.76569 2.14994 -2.645 a 0.59875 0.59875 0 0 0 0.045 -0.05193 c 0.36351 -0.45 0.73049 -0.89666 1.094 -1.34671 l 0.0002 -0.00055 a 16.07543 16.07543 0 0 0 -0.471 -4.09507 Z" stroke-linecap="round" />
</g>
		<g transform="matrix(1 0 0 1 -153.06 -203.04)"  >
<path style="stroke: none; stroke-width: 1; stroke-dasharray: none; stroke-linecap: butt; stroke-dashoffset: 0; stroke-linejoin: miter; stroke-miterlimit: 4; fill: rgb(230,230,230); fill-rule: nonzero; opacity: 1;"  transform=" translate(-446.94, -246.96)" d="M 482.96471 224.97808 c 1.95416 -3.93451 5.0777 -7.20117 6.98822 -11.1571 c 1.91059 -3.95587 2.28211 -9.25055 -0.90088 -12.27844 c -2.70269 -2.571 -6.936 -2.607 -10.16809 -4.46924 c -8.23425 -4.74439 -8.22467 -19.81372 -17.6383 -21.11579 c -4.57758 -0.63317 -8.71942 2.79969 -11.48615 6.501 c -2.76678 3.70136 -4.97131 8.02039 -8.80841 10.59552 c -4.34363 2.9151 -9.95929 3.04187 -14.78265 5.06665 c -9.24787 3.88208 -14.09632 13.8645 -18.15027 23.03839 c -2.61157 5.90985 -5.283 12.28412 -4.07129 18.63068 c -2.63385 1.63885 -1.46 6.04675 1.16907 7.69318 s 5.93066 1.60986 8.94964 2.323 c 6.345 1.4989 11.54041 6.54975 14.00336 12.58619 c 1.91968 4.70489 2.31219 9.87066 2.68262 14.93859 q 0.964 13.19084 1.928 26.3816 c 0.286 3.91241 0.66113 8.07019 3.04248 11.1875 c 2.38141 3.11731 7.53833 4.42358 10.21533 1.55615 c 2.55835 -2.74036 1.40607 -7.07874 1.35425 -10.82733 c -0.05176 -3.7486 3.33685 -8.41645 6.532 -6.45539 l 1.12677 -2.55664 a 40.33337 40.33337 0 0 0 26.60254 -34.6817 C 482.36938 249.49053 477.4171 236.14733 482.96471 224.97808 Z" stroke-linecap="round" />
</g>
		<g transform="matrix(1 0 0 1 -116.12 -149.66)"  >
<path style="stroke: none; stroke-width: 1; stroke-dasharray: none; stroke-linecap: butt; stroke-dashoffset: 0; stroke-linejoin: miter; stroke-miterlimit: 4; fill: rgb(230,230,230); fill-rule: nonzero; opacity: 1;"  transform=" translate(-483.88, -300.34)" d="M 490.42248 303.88989 a 5.07894 5.07894 0 0 0 -2.9137 -8.74274 l 0.01208 0.42236 a 8.73331 8.73331 0 0 1 -4.53051 1.19068 a 13.72034 13.72034 0 0 0 -4.6615 0.73834 a 3.92894 3.92894 0 0 0 -2.58515 3.61511 a 3.81561 3.81561 0 0 0 2.05744 2.8653 a 11.27063 11.27063 0 0 0 3.49878 1.06256 C 484.43389 305.6311 488.102 306.07727 490.42248 303.88989 Z" stroke-linecap="round" />
</g>
		<g transform="matrix(1 0 0 1 -52.07 -228.72)"  >
<path style="stroke: none; stroke-width: 1; stroke-dasharray: none; stroke-linecap: butt; stroke-dashoffset: 0; stroke-linejoin: miter; stroke-miterlimit: 4; fill: rgb(230,230,230); fill-rule: nonzero; opacity: 1;"  transform=" translate(-547.93, -221.28)" d="M 551.53936 225.1864 a 11.54039 11.54039 0 0 0 3.27344 -3.38983 a 3.93566 3.93566 0 0 0 -0.25525 -4.44037 a 5.273 5.273 0 0 0 -3.568 -1.28894 a 27.75671 27.75671 0 0 0 -10.515 1.23993 q 5.22592 4.6299 10.45178 9.25988 Z" stroke-linecap="round" />
</g>
		<g transform="matrix(1 0 0 1 -63.62 -217.21)"  >
<path style="stroke: none; stroke-width: 1; stroke-dasharray: none; stroke-linecap: butt; stroke-dashoffset: 0; stroke-linejoin: miter; stroke-miterlimit: 4; fill: rgb(230,230,230); fill-rule: nonzero; opacity: 1;"  transform=" translate(-536.38, -232.79)" d="M 534.11626 233.21411 c 1.40821 1.55426 0.95929 3.96521 0.56067 6.02435 c -0.39862 2.05908 -0.4494 4.63214 1.32166 5.75549 c 1.535 0.97364 3.68957 0.17914 4.81225 -1.25049 a 11.07934 11.07934 0 0 0 1.78021 -5.09185 a 35.58342 35.58342 0 0 0 0.74317 -8.03723 a 12.39179 12.39179 0 0 0 -2.72943 -7.4599 a 8.78433 8.78433 0 0 0 -9.95728 -2.3263 l 1.61872 -0.07983 a 15.80164 15.80164 0 0 0 -2.63337 5.0531 a 5.36683 5.36683 0 0 0 1.33051 5.28424 C 531.92364 231.92132 533.26159 232.27075 534.11626 233.21411 Z" stroke-linecap="round" />
</g>
		<g transform="matrix(1 0 0 1 12.31 -240.17)"  >
<path style="stroke: none; stroke-width: 1; stroke-dasharray: none; stroke-linecap: butt; stroke-dashoffset: 0; stroke-linejoin: miter; stroke-miterlimit: 4; fill: rgb(230,230,230); fill-rule: nonzero; opacity: 1;"  transform=" translate(-612.31, -209.83)" d="M 613.53612 207.14636 l 0.2873 -0.88629 a 6.067 6.067 0 0 0 -2.72925 7.134 A 6.63008 6.63008 0 0 0 613.53612 207.14636 Z" stroke-linecap="round" />
</g>
		<g transform="matrix(1 0 0 1 -0.69 -236.76)"  >
<path style="stroke: none; stroke-width: 1; stroke-dasharray: none; stroke-linecap: butt; stroke-dashoffset: 0; stroke-linejoin: miter; stroke-miterlimit: 4; fill: rgb(230,230,230); fill-rule: nonzero; opacity: 1;"  transform=" translate(-599.31, -213.24)" d="M 597.89092 219.832 a 11.27379 11.27379 0 0 0 5.63416 -8.433 a 6.20231 6.20231 0 0 0 -0.36457 -3.22064 a 3.32835 3.32835 0 0 0 -2.424 -2.00159 l -0.65552 1.03174 c -0.94012 -0.809 -2.519 0.023 -2.91449 1.19861 a 6.41856 6.41856 0 0 0 0.305 3.65039 a 4.81091 4.81091 0 0 1 -0.05744 3.62085 a 13.02076 13.02076 0 0 1 -1.774 1.86377 a 1.857 1.857 0 0 0 -0.33887 2.33539 C 595.91808 220.58215 597.07207 220.28643 597.89092 219.832 Z" stroke-linecap="round" />
</g>
		<g transform="matrix(1 0 0 1 -10.18 -237.24)"  >
<path style="stroke: none; stroke-width: 1; stroke-dasharray: none; stroke-linecap: butt; stroke-dashoffset: 0; stroke-linejoin: miter; stroke-miterlimit: 4; fill: rgb(230,230,230); fill-rule: nonzero; opacity: 1;"  transform=" translate(-589.82, -212.76)" d="M 591.22063 214.06848 a 6.13592 6.13592 0 0 0 0.76349 -3.31067 l -1.43371 -0.44959 a 6.12235 6.12235 0 0 0 -2.36829 1.71314 a 1.86583 1.86583 0 1 0 3.03851 2.04712 Z" stroke-linecap="round" />
</g>
		<g transform="matrix(1 0 0 1 61.65 -243.02)"  >
<path style="stroke: none; stroke-width: 1; stroke-dasharray: none; stroke-linecap: butt; stroke-dashoffset: 0; stroke-linejoin: miter; stroke-miterlimit: 4; fill: rgb(230,230,230); fill-rule: nonzero; opacity: 1;"  transform=" translate(-661.65, -206.98)" d="M 661.28649 206.814 c 0.12976 0.10852 0.25848 0.22015 0.38824 0.32971 c 0.11414 -0.024 0.22272 -0.06708 0.33936 -0.0813 Z" stroke-linecap="round" />
</g>
		<g transform="matrix(1 0 0 1 61 -236.43)"  >
<path style="stroke: none; stroke-width: 1; stroke-dasharray: none; stroke-linecap: butt; stroke-dashoffset: 0; stroke-linejoin: miter; stroke-miterlimit: 4; fill: rgb(230,230,230); fill-rule: nonzero; opacity: 1;"  transform=" translate(-661, -213.57)" d="M 658.98913 219.39459 q 1.97415 -1.597 3.94824 -3.194 a 6.584 6.584 0 0 0 1.75451 -1.84418 a 4.46036 4.46036 0 0 0 -0.318 -4.29474 a 11.81241 11.81241 0 0 0 -2.6991 -2.918 a 4.88077 4.88077 0 0 0 -3.725 5.304 c 0.23773 1.50952 1.18573 3.12378 0.41192 4.44153 c -0.30126 0.51312 -0.81958 0.86242 -1.16693 1.34558 c -0.34735 0.48309 -0.46014 1.25256 0.01722 1.60785 C 657.74193 220.23706 658.47545 219.81011 658.98913 219.39459 Z" stroke-linecap="round" />
</g>
		<g transform="matrix(1 0 0 1 64.64 -227.12)"  >
<path style="stroke: none; stroke-width: 1; stroke-dasharray: none; stroke-linecap: butt; stroke-dashoffset: 0; stroke-linejoin: miter; stroke-miterlimit: 4; fill: rgb(230,230,230); fill-rule: nonzero; opacity: 1;"  transform=" translate(-664.64, -222.88)" d="M 661.86754 225.912 a 3.41784 3.41784 0 0 0 2.64313 -1.04034 a 23.33842 23.33842 0 0 0 4.56867 -5.01941 q -4.44205 1.40707 -8.88416 2.814 l 0.92316 1.07966 C 660.29833 224.28112 660.90575 225.72778 661.86754 225.912 Z" stroke-linecap="round" />
</g>
		<g transform="matrix(1 0 0 1 72.89 -220.84)"  >
<path style="stroke: none; stroke-width: 1; stroke-dasharray: none; stroke-linecap: butt; stroke-dashoffset: 0; stroke-linejoin: miter; stroke-miterlimit: 4; fill: rgb(230,230,230); fill-rule: nonzero; opacity: 1;"  transform=" translate(-672.89, -229.16)" d="M 670.16759 232.00738 a 2.26952 2.26952 0 0 0 2.34375 1.43109 a 3.38982 3.38982 0 0 0 2.41632 -1.54675 a 4.50178 4.50178 0 0 0 -3.53936 -7.02466 l 0.81756 1.24915 C 672.41417 228.24841 669.5158 229.96661 670.16759 232.00738 Z" stroke-linecap="round" />
</g>
		<g transform="matrix(1 0 0 1 130.56 -197.81)"  >
<path style="stroke: none; stroke-width: 1; stroke-dasharray: none; stroke-linecap: butt; stroke-dashoffset: 0; stroke-linejoin: miter; stroke-miterlimit: 4; fill: rgb(230,230,230); fill-rule: nonzero; opacity: 1;"  transform=" translate(-730.56, -252.19)" d="M 727.68041 255.35992 a 4.61809 4.61809 0 0 0 5.54175 -0.01318 a 4.94283 4.94283 0 0 0 0.29547 -7.24305 l -1.51239 0.84443 a 3.85089 3.85089 0 0 0 -5.244 1.04162 A 4.19834 4.19834 0 0 0 727.68041 255.35992 Z" stroke-linecap="round" />
</g>
		<g transform="matrix(1 0 0 1 144.26 -194.95)"  >
<path style="stroke: none; stroke-width: 1; stroke-dasharray: none; stroke-linecap: butt; stroke-dashoffset: 0; stroke-linejoin: miter; stroke-miterlimit: 4; fill: rgb(230,230,230); fill-rule: nonzero; opacity: 1;"  transform=" translate(-744.26, -255.05)" d="M 745.26775 257.351 a 4.48037 4.48037 0 0 0 3.07276 -3.12189 l -2.94031 -0.38641 a 6.5103 6.5103 0 0 0 -2.77881 -1.21387 a 2.23162 2.23162 0 0 0 -2.42114 1.42651 a 2.41541 2.41541 0 0 0 0.82434 2.20765 A 4.48034 4.48034 0 0 0 745.26775 257.351 Z" stroke-linecap="round" />
</g>
		<g transform="matrix(1 0 0 1 135.71 -186.34)"  >
<path style="stroke: none; stroke-width: 1; stroke-dasharray: none; stroke-linecap: butt; stroke-dashoffset: 0; stroke-linejoin: miter; stroke-miterlimit: 4; fill: rgb(230,230,230); fill-rule: nonzero; opacity: 1;"  transform=" translate(-735.71, -263.66)" d="M 733.12554 263.22949 a 2.53437 2.53437 0 0 0 1.69446 2.12372 a 2.74555 2.74555 0 0 0 3.04883 -0.47217 a 1.68314 1.68314 0 0 0 -0.61091 -2.66913 l -2.205 -0.401 C 734.201 261.36975 733.11168 262.27014 733.12554 263.22949 Z" stroke-linecap="round" />
</g>
		<g transform="matrix(1 0 0 1 4.33 -172.05)"  >
<path style="stroke: none; stroke-width: 1; stroke-dasharray: none; stroke-linecap: butt; stroke-dashoffset: 0; stroke-linejoin: miter; stroke-miterlimit: 4; fill: rgb(230,230,230); fill-rule: nonzero; opacity: 1;"  transform=" translate(-604.33, -277.95)" d="M 605.18261 278.73388 l -1.70661 -1.55841 A 5.58655 5.58655 0 0 0 605.18261 278.73388 Z" stroke-linecap="round" />
</g>
		<g transform="matrix(1 0 0 1 6.61 -189.77)"  >
<path style="stroke: none; stroke-width: 1; stroke-dasharray: none; stroke-linecap: butt; stroke-dashoffset: 0; stroke-linejoin: miter; stroke-miterlimit: 4; fill: rgb(230,230,230); fill-rule: nonzero; opacity: 1;"  transform=" translate(-606.61, -260.23)" d="M 592.14721 269.55743 c 1.0506 4.87933 6.30609 8.85437 11.07708 7.38818 l 0.25171 0.22986 c -1.519 -2.07892 -1.77636 -5.155 -1.42157 -7.83008 A 27.57368 27.57368 0 0 1 617.96 248.15264 a 6.56346 6.56346 0 0 0 2.985 -1.94476 c 0.67993 -0.99432 0.42621 -2.6994 -0.74518 -2.98028 a 2.78923 2.78923 0 0 0 -1.81879 0.421 l -8.86615 4.36377 c -4.47821 2.204 -9.04565 4.4712 -12.56311 8.01233 S 591.09661 264.678 592.14721 269.55743 Z" stroke-linecap="round" />
</g>
		<g transform="matrix(1 0 0 1 -177.94 30.2)"  >
<path style="stroke: none; stroke-width: 1; stroke-dasharray: none; stroke-linecap: butt; stroke-dashoffset: 0; stroke-linejoin: miter; stroke-miterlimit: 4; fill: rgb(230,230,230); fill-rule: nonzero; opacity: 1;"  transform=" translate(-422.06, -480.2)" d="M 449.02593 437.3399 a 108.87053 108.87053 0 0 0 -26.88086 -14.04755 c -5.88324 -2.09155 -12.20477 -3.68713 -18.33472 -2.49951 a 21.82368 21.82368 0 0 0 -15.43994 12.3252 a 22.85724 22.85724 0 0 0 0.747 19.81164 c 2.82672 5.29718 7.7218 9.51587 9.35834 15.29273 c 1.10327 3.89459 0.58063 8.04107 0.04956 12.05395 q -1.62791 12.30057 -3.25574 24.60108 c -0.988 7.46612 -1.95086 15.23571 0.413 22.38635 c 2.36389 7.15063 9.10925 13.45386 16.60211 12.6944 l 1.4848 -0.1117 c -4.95648 -3.37048 -6.34576 -10.34808 -4.86993 -16.15747 c 1.47589 -5.80933 5.22143 -10.73559 8.8786 -15.4845 q 16.27908 -21.13851 32.5581 -42.277 c 4.39093 -5.7016 9.03522 -12.749 6.69379 -19.55384 C 455.699 442.50549 452.35167 439.72186 449.02593 437.3399 Z" stroke-linecap="round" />
</g>
		<g transform="matrix(1 0 0 1 -261.34 -106.23)"  >
<path style="stroke: none; stroke-width: 1; stroke-dasharray: none; stroke-linecap: butt; stroke-dashoffset: 0; stroke-linejoin: miter; stroke-miterlimit: 4; fill: rgb(230,230,230); fill-rule: nonzero; opacity: 1;"  transform=" translate(-338.66, -343.77)" d="M 375.06481 401.71484 c -1.09912 -0.37256 -2.26007 0.45526 -2.90631 1.41919 a 19.48082 19.48082 0 0 1 -1.83374 2.94781 c -1.69061 1.74256 -4.77155 1.39637 -6.59491 -0.20684 c -1.82337 -1.60315 -2.6134 -4.08265 -2.96729 -6.48468 c -0.42456 -2.88215 -0.24127 -6.09748 1.66089 -8.304 c 1.95819 -2.27148 5.1767 -2.88092 8.13831 -3.35272 c 3.05926 -0.48737 6.48663 -0.89386 8.99292 0.92682 c 1.57867 1.14679 2.49878 2.99737 3.96118 4.28918 c 1.4624 1.29175 4.06372 1.78119 5.16431 0.16992 a 3.96505 3.96505 0 0 0 -0.05286 -3.67267 a 8.99 8.99 0 0 1 -1.09168 -3.63678 c 0.07367 -1.77111 1.496 -3.17865 2.95112 -4.191 s 3.09851 -1.88587 4.05316 -3.37946 c 1.17431 -1.83722 1.04968 -4.2038 1.77813 -6.259 c 1.76313 -4.97406 8.05549 -7.18683 9.88843 -12.13562 a 4.67859 4.67859 0 0 0 0.13965 -3.2815 c -0.76721 -1.97107 -2.84088 -1.58422 -2.968 -3.99365 c -0.1217 -2.30469 1.80066 -4.56463 3.754 -5.52716 c 2.69312 -1.32709 5.83289 -1.21942 8.83417 -1.30011 c 3.00122 -0.08063 6.23468 -0.47961 8.43731 -2.51984 a 7.2724 7.2724 0 0 0 -0.77337 -10.81823 c -1.64124 -1.13349 -3.71607 -1.52765 -5.313 -2.72272 c -1.98907 -1.48853 -2.9306 -3.96759 -4.4798 -5.90973 a 22.73076 22.73076 0 0 0 -4.38745 -3.88464 q -1.994 -1.4795 -3.98791 -2.95911 c -2.40314 -1.78314 -4.90357 -3.61163 -7.82782 -4.247 c -2.92426 -0.63525 -6.40656 0.26367 -7.871 2.87335 a 8.87849 8.87849 0 0 0 -0.92413 3.73676 a 53.81207 53.81207 0 0 0 0.38111 9.15387 q 0.362 3.66431 0.724 7.32867 c 0.21631 2.19 -0.01593 5.07727 -2.14184 5.64563 c -4.71619 1.26093 -3.12476 -5.7124 -4.17072 -7.84875 c -1.60107 -3.27 -8.95715 -4.84027 -12.10186 -6.20306 c -1.964 -0.85108 -4.03669 -1.79059 -5.2226 -3.57251 c -1.476 -2.21778 -1.173 -5.23633 -0.01556 -7.63575 c 1.15741 -2.39947 3.04327 -4.35247 4.75647 -6.39257 c 1.74639 -2.07959 3.3366 -4.28455 4.925 -6.48719 q 2.76334 -3.83193 5.52668 -7.66382 c 2.36273 -3.27636 4.84655 -7.275 3.50445 -11.085 a 2.98226 2.98226 0 0 0 -5.45746 0.65808 c -0.58825 2.05683 0.981 4.683 -0.52014 6.20728 a 2.81418 2.81418 0 0 1 -3.61126 -0.06757 a 8.20294 8.20294 0 0 1 -2.15839 -3.26385 c -1.81873 -4.04169 -3.59064 -8.1084 -5.45752 -12.128 c -0.59015 -1.27069 -1.20612 -3.44647 -2.99463 -3.2323 c -1.55267 0.186 -2.39117 2.44861 -2.33722 3.76227 c 0.07849 1.91125 1.13489 3.619 1.94226 5.35315 s 1.372 3.81652 0.48554 5.51159 c -1.1225 2.14618 -3.96521 2.6283 -6.38617 2.55738 a 29.944 29.944 0 0 1 -13.0719 -3.44916 q -0.1582 3.36429 -0.31647 6.72857 q -4.82007 -2.01745 -9.64014 -4.035 q -0.93612 -0.39184 -1.87231 -0.78369 c -2.71063 -1.13458 -5.42462 -2.27045 -8.21509 -3.19147 c -1.58417 -0.52289 -3.19037 -0.97565 -4.796 -1.42828 q -1.46411 -0.41263 -2.9281 -0.82532 a 15.36277 15.36277 0 0 0 -6.00885 -0.85718 c -2.14325 0.26923 -4.05493 1.42029 -6.03711 2.28089 c -4.42236 1.91974 -10.14233 -0.01154 -14.88147 -0.04572 a 19.89643 19.89643 0 0 0 -33.42706 0.92615 a 39.813 39.813 0 0 0 -2.22168 4.467 q -0.96452 2.16156 -1.92908 4.32306 c -0.9433 2.11395 -1.90741 4.341 -1.722 6.64844 s 1.95428 4.66461 4.269 4.64367 c -5.45831 2.47113 -6.59412 11.11823 -1.95911 14.91516 c 1.28345 1.05139 2.8573 1.739 4.01227 2.93006 a 6.29162 6.29162 0 0 1 -4.72668 10.6679 a 15.323 15.323 0 0 0 18.21423 -5.70526 c 1.98163 -3.1026 2.8429 -6.9787 5.53864 -9.4859 c 3.57006 -3.32043 9.467 -3.06274 13.58459 -0.4519 s 6.72241 7.05627 8.51416 11.59064 c 2.348 5.94213 3.85071 12.73223 8.853 16.7069 c 2.41876 1.92188 5.48187 3.00275 7.61975 5.23285 c 3.04449 3.17591 3.57123 7.96918 3.50256 12.36817 c -0.06866 4.39892 -0.54242 8.963 1.06 13.0603 s 6.19629 7.46716 10.31574 5.92267 a 16.408 16.408 0 0 0 6.86889 19.16492 q -1.12573 -6.98245 -2.25146 -13.965 c 3.7406 1.053 6.165 4.68121 7.56518 8.30621 c 1.40015 3.62488 2.14 7.54517 4.1695 10.859 c 3.19592 5.21826 8.98327 7.46674 14.8706 7.447 c 6.35993 -0.02136 8.77454 -3.05365 12.96576 -7.51953 a 6.83987 6.83987 0 0 0 1.85962 -2.79211 A 2.34922 2.34922 0 0 0 375.06481 401.71484 Z" stroke-linecap="round" />
</g>
		<g transform="matrix(1 0 0 1 -209.58 -47.15)"  >
<path style="stroke: none; stroke-width: 1; stroke-dasharray: none; stroke-linecap: butt; stroke-dashoffset: 0; stroke-linejoin: miter; stroke-miterlimit: 4; fill: rgb(230,230,230); fill-rule: nonzero; opacity: 1;"  transform=" translate(-390.42, -402.85)" d="M 393.07354 401.48315 q -5.33221 -0.83808 -10.66455 -1.67621 q 2.79537 1.68054 5.5907 3.361 a 20.22092 20.22092 0 0 0 5.02087 2.419 a 6.81959 6.81959 0 0 0 5.40161 -0.5686 l -0.455 -0.86982 C 397.25023 402.33593 394.9992 401.78582 393.07354 401.48315 Z" stroke-linecap="round" />
</g>
		<g transform="matrix(1 0 0 1 -216.83 -32.22)"  >
<path style="stroke: none; stroke-width: 1; stroke-dasharray: none; stroke-linecap: butt; stroke-dashoffset: 0; stroke-linejoin: miter; stroke-miterlimit: 4; fill: rgb(230,230,230); fill-rule: nonzero; opacity: 1;"  transform=" translate(-383.17, -417.78)" d="M 390.65819 421.24316 l 0.0246 -0.06165 a 2.08714 2.08714 0 0 0 -2.11957 -0.9826 a 7.74858 7.74858 0 0 1 -2.47931 0.04034 a 3.51734 3.51734 0 0 1 -2.13165 -2.42291 c -0.35333 -1.06311 -0.45788 -2.2005 -0.86029 -3.246 a 4.76425 4.76425 0 0 0 -3.84985 -3.14038 a 3.3273 3.3273 0 0 0 -3.57868 3.00354 a 5.55733 5.55733 0 0 0 0.82984 2.52441 q 0.57513 1.10632 1.15033 2.21271 a 14.874 14.874 0 0 0 1.11212 1.903 a 7.43193 7.43193 0 0 0 11.90246 0.1695 Z" stroke-linecap="round" />
</g>
		<g transform="matrix(1 0 0 1 -211.7 -230.93)"  >
<path style="stroke: none; stroke-width: 1; stroke-dasharray: none; stroke-linecap: butt; stroke-dashoffset: 0; stroke-linejoin: miter; stroke-miterlimit: 4; fill: rgb(230,230,230); fill-rule: nonzero; opacity: 1;"  transform=" translate(-388.3, -219.07)" d="M 369.8969 232.06823 c 2.70691 1.59583 6.09662 2.69568 7.38275 5.56269 l 0.742 0.23968 q -1.214 1.50852 -2.428 3.017 c -1.00018 1.2428 -2.05188 2.62756 -2.0285 4.22265 c 0.03222 2.19678 2.14538 3.85407 4.28051 4.372 a 9.38065 9.38065 0 0 0 10.84479 -6.39209 c 0.25391 -0.92608 0.3587 -1.88659 0.58142 -2.82061 a 22.94132 22.94132 0 0 1 2.90582 -6.2428 q 10.7818 -18.139 21.56366 -36.278 c 0.89515 -1.506 1.81794 -3.30755 1.14478 -4.925 a 3.86913 3.86913 0 0 0 -3.82031 -2.05011 a 11.3482 11.3482 0 0 0 -4.34888 1.46258 a 7.40613 7.40613 0 0 0 -5.7934 -3.71429 a 21.87066 21.87066 0 0 0 -7.10986 0.61926 a 43.77435 43.77435 0 0 0 -14.91687 5.12439 c -2.52795 1.278 -5.31 2.85626 -6.0434 5.59235 c -0.90222 3.3656 2.00531 6.79571 5.35279 7.76293 c 3.34747 0.96729 6.92053 0.155 10.30853 -0.65917 a 7.80046 7.80046 0 0 1 -13.03863 7.36 c -2.42853 -2.36474 -3.618 -6.46979 -6.95227 -7.08008 c -3.32367 -0.60833 -5.96558 2.93665 -6.6991 6.235 A 17.71762 17.71762 0 0 0 369.8969 232.06823 Z" stroke-linecap="round" />
</g>
		<g transform="matrix(1 0 0 1 -206.46 -162.14)"  >
<path style="stroke: none; stroke-width: 1; stroke-dasharray: none; stroke-linecap: butt; stroke-dashoffset: 0; stroke-linejoin: miter; stroke-miterlimit: 4; fill: rgb(230,230,230); fill-rule: nonzero; opacity: 1;"  transform=" translate(-393.54, -287.86)" d="M 411.5852 290.25616 a 63.74646 63.74646 0 0 0 -6.27118 -12.869 a 38.45057 38.45057 0 0 0 -7.1283 -8.59009 a 27.542 27.542 0 0 0 -8.62146 -5.05035 c -3.06506 -1.10846 -6.47742 -1.65595 -9.57611 -0.64533 c -3.09863 1.01069 -5.7348 3.89173 -5.672 7.15046 c 0.06946 3.60315 3.22205 6.42114 6.50769 7.90167 s 6.94062 2.12488 10.04047 3.96283 a 15.04933 15.04933 0 0 1 7.228 12.14941 l 0.7807 1.291 a 15.6037 15.6037 0 0 0 -4.87036 2.65167 a 5.29679 5.29679 0 0 0 -1.84967 4.97748 c 0.54162 2.18188 2.76947 3.434 4.784 4.4317 q 5.58353 2.76535 11.16706 5.53076 c -1.89527 -5.65155 4.31 -10.91058 4.65319 -16.86157 A 15.589 15.589 0 0 0 411.5852 290.25616 Z" stroke-linecap="round" />
</g>
		<g transform="matrix(1 0 0 1 -265.33 -179.5)"  >
<path style="stroke: none; stroke-width: 1; stroke-dasharray: none; stroke-linecap: butt; stroke-dashoffset: 0; stroke-linejoin: miter; stroke-miterlimit: 4; fill: rgb(230,230,230); fill-rule: nonzero; opacity: 1;"  transform=" translate(-334.67, -270.5)" d="M 317.98778 274.99725 c 2.25806 1.75354 5.72986 0.93329 7.79847 -1.04016 c 2.0686 -1.97351 3.07611 -4.78186 4.01568 -7.48206 a 28.886 28.886 0 0 0 0.09656 8.04383 a 9.74366 9.74366 0 0 0 4.23926 6.58953 a 11.4238 11.4238 0 0 0 3.26281 1.18787 a 27.46849 27.46849 0 0 0 15.937 -1.13861 l 0.0456 -1.73779 c -2.5531 0.29126 -4.48511 -2.50892 -4.65363 -5.073 c -0.16858 -2.56409 0.762 -5.07868 0.84381 -7.647 s -1.156 -5.56909 -3.68469 -6.02606 a 4.88838 4.88838 0 0 1 -6.217 6.70728 c -2.92694 -1.18994 -3.99023 -4.75574 -6.25214 -6.96186 a 9.48651 9.48651 0 0 0 -10.41027 -1.46423 a 12.91094 12.91094 0 0 0 -6.69171 8.50971 C 315.63061 270.103 315.83446 273.32507 317.98778 274.99725 Z" stroke-linecap="round" />
</g>
		<g transform="matrix(1 0 0 1 -224.64 -197.88)"  >
<path style="stroke: none; stroke-width: 1; stroke-dasharray: none; stroke-linecap: butt; stroke-dashoffset: 0; stroke-linejoin: miter; stroke-miterlimit: 4; fill: rgb(230,230,230); fill-rule: nonzero; opacity: 1;"  transform=" translate(-375.36, -252.12)" d="M 387.67693 256.697 l 0.1048 -0.17011 c -0.63043 -1.82031 -2.58435 -2.88763 -4.49158 -3.15851 a 29.18668 29.18668 0 0 0 -5.76312 0.19049 a 8.35606 8.35606 0 0 1 -5.52637 -1.21722 c -1.31286 -0.98145 -2.06079 -2.52557 -3.11029 -3.78467 c -1.04956 -1.25909 -2.74817 -2.29449 -4.27276 -1.69244 c -1.65058 0.65179 -2.09089 2.96533 -1.28992 4.54889 a 8.04181 8.04181 0 0 0 4.04516 3.30169 A 31.20222 31.20222 0 0 0 387.67693 256.697 Z" stroke-linecap="round" />
</g>
		<g transform="matrix(1 0 0 1 -232.5 -185.7)"  >
<path style="stroke: none; stroke-width: 1; stroke-dasharray: none; stroke-linecap: butt; stroke-dashoffset: 0; stroke-linejoin: miter; stroke-miterlimit: 4; fill: rgb(230,230,230); fill-rule: nonzero; opacity: 1;"  transform=" translate(-367.5, -264.3)" d="M 365.98528 262.15325 a 2.53494 2.53494 0 0 0 2.82428 4.20527 l 0.55689 0.54968 c 0.7406 -1.32623 1.046 -3.103 0.09893 -4.29059 A 2.63056 2.63056 0 0 0 365.98528 262.15325 Z" stroke-linecap="round" />
</g>
		<g transform="matrix(1 0 0 1 -242.21 -181.99)"  >
<path style="stroke: none; stroke-width: 1; stroke-dasharray: none; stroke-linecap: butt; stroke-dashoffset: 0; stroke-linejoin: miter; stroke-miterlimit: 4; fill: rgb(230,230,230); fill-rule: nonzero; opacity: 1;"  transform=" translate(-357.79, -268.01)" d="M 359.46886 266.91119 a 2.3473 2.3473 0 0 0 -1.464 -2.215 a 2.24724 2.24724 0 0 0 -2.60919 1.93091 a 4.48356 4.48356 0 0 0 1.17444 3.37408 a 3.09386 3.09386 0 0 0 2.14813 1.34968 c 0.87268 0.02856 1.76251 -0.884 1.40863 -1.68226 l -1.33252 -0.026 A 6.88124 6.88124 0 0 0 359.46886 266.91119 Z" stroke-linecap="round" />
</g>
		<g transform="matrix(1 0 0 1 -260.8 -198.97)"  >
<path style="stroke: none; stroke-width: 1; stroke-dasharray: none; stroke-linecap: butt; stroke-dashoffset: 0; stroke-linejoin: miter; stroke-miterlimit: 4; fill: rgb(230,230,230); fill-rule: nonzero; opacity: 1;"  transform=" translate(-339.2, -251.03)" d="M 333.40978 253.26434 q 0.73407 0.5949 1.4682 1.18994 a 17.60232 17.60232 0 0 0 2.73468 1.94171 a 7.49164 7.49164 0 0 0 5.57251 0.68213 a 5.73623 5.73623 0 0 0 3.922 -3.87024 c 0.58514 -2.20489 -0.36933 -4.49432 -1.30341 -6.5755 a 3.99 3.99 0 0 0 -1.02624 -1.5647 a 1.368 1.368 0 0 0 -1.73084 -0.068 a 1.71222 1.71222 0 0 0 -0.27862 1.64447 a 4.4837 4.4837 0 0 1 0.2702 1.71393 c -0.09308 0.5755 -0.69714 1.11944 -1.22925 0.88141 l -0.08472 1.959 c -2.541 -1.28625 -3.88482 -4.70764 -6.7127 -5.045 a 3.49 3.49 0 0 0 -3.48529 5.12188 A 7.01119 7.01119 0 0 0 333.40978 253.26434 Z" stroke-linecap="round" />
</g>
		<g transform="matrix(1 0 0 1 -274.32 -206.75)"  >
<path style="stroke: none; stroke-width: 1; stroke-dasharray: none; stroke-linecap: butt; stroke-dashoffset: 0; stroke-linejoin: miter; stroke-miterlimit: 4; fill: rgb(230,230,230); fill-rule: nonzero; opacity: 1;"  transform=" translate(-325.68, -243.25)" d="M 327.35772 244.80731 a 3.86986 3.86986 0 0 0 1.64972 -3.68665 a 2.3791 2.3791 0 0 0 -3.2298 -1.72363 a 3.83071 3.83071 0 0 0 -1.43933 2.2088 q -1.00452 2.83356 -2.0091 5.66718 l 1.12555 -0.819 A 11.38384 11.38384 0 0 0 327.35772 244.80731 Z" stroke-linecap="round" />
</g>
		<g transform="matrix(1 0 0 1 -261.2 -218.16)"  >
<path style="stroke: none; stroke-width: 1; stroke-dasharray: none; stroke-linecap: butt; stroke-dashoffset: 0; stroke-linejoin: miter; stroke-miterlimit: 4; fill: rgb(230,230,230); fill-rule: nonzero; opacity: 1;"  transform=" translate(-338.8, -231.84)" d="M 340.40081 233.21429 a 2.21452 2.21452 0 0 0 -0.68414 -3.3252 l -1.40735 -0.13159 a 2.11207 2.11207 0 1 0 2.09149 3.45679 Z" stroke-linecap="round" />
</g>
		<g transform="matrix(1 0 0 1 -246.44 -219.67)"  >
<path style="stroke: none; stroke-width: 1; stroke-dasharray: none; stroke-linecap: butt; stroke-dashoffset: 0; stroke-linejoin: miter; stroke-miterlimit: 4; fill: rgb(230,230,230); fill-rule: nonzero; opacity: 1;"  transform=" translate(-353.56, -230.33)" d="M 353.34862 235.38665 c 1.3133 0.62836 2.97577 1.22711 4.11829 0.32483 a 2.597 2.597 0 0 0 0.79541 -2.47528 a 6.29379 6.29379 0 0 0 -1.16132 -2.446 a 23.49991 23.49991 0 0 0 -6.53515 -6.31037 l -0.635 0.825 c -0.8869 2.303 -1.74323 4.99152 -0.50617 7.127 C 350.25878 233.87139 351.84777 234.66857 353.34862 235.38665 Z" stroke-linecap="round" />
</g>
		<g transform="matrix(1 0 0 1 -235.64 -212.03)"  >
<path style="stroke: none; stroke-width: 1; stroke-dasharray: none; stroke-linecap: butt; stroke-dashoffset: 0; stroke-linejoin: miter; stroke-miterlimit: 4; fill: rgb(230,230,230); fill-rule: nonzero; opacity: 1;"  transform=" translate(-364.36, -237.97)" d="M 363.13231 237.43627 l 2.45582 1.11084 A 2.30293 2.30293 0 0 0 363.13231 237.43627 Z" stroke-linecap="round" />
</g>
		<g transform="matrix(1 0 0 1 -242.84 -200.61)"  >
<path style="stroke: none; stroke-width: 1; stroke-dasharray: none; stroke-linecap: butt; stroke-dashoffset: 0; stroke-linejoin: miter; stroke-miterlimit: 4; fill: rgb(230,230,230); fill-rule: nonzero; opacity: 1;"  transform=" translate(-357.16, -249.39)" d="M 356.51433 245.16314 l -1.16046 0.38233 c -0.98675 1.62158 -0.55865 3.69506 -0.09967 5.53692 c 0.29016 1.16443 0.916 2.59717 2.11481 2.54425 c 1.16656 -0.05151 1.68274 -1.466 1.90662 -2.612 a 7.88393 7.88393 0 0 0 0.11029 -3.81976 A 2.70652 2.70652 0 0 0 356.51433 245.16314 Z" stroke-linecap="round" />
</g>
		<g transform="matrix(1 0 0 1 -261.26 -210.87)"  >
<path style="stroke: none; stroke-width: 1; stroke-dasharray: none; stroke-linecap: butt; stroke-dashoffset: 0; stroke-linejoin: miter; stroke-miterlimit: 4; fill: rgb(230,230,230); fill-rule: nonzero; opacity: 1;"  transform=" translate(-338.74, -239.13)" d="M 338.00847 239.7055 l 0.85865 0.34576 a 0.92412 0.92412 0 1 0 -0.85865 -0.34576 Z" stroke-linecap="round" />
</g>
		<g transform="matrix(1 0 0 1 -218.25 -143.13)"  >
<path style="stroke: none; stroke-width: 1; stroke-dasharray: none; stroke-linecap: butt; stroke-dashoffset: 0; stroke-linejoin: miter; stroke-miterlimit: 4; fill: rgb(230,230,230); fill-rule: nonzero; opacity: 1;"  transform=" translate(-381.75, -306.87)" d="M 381.29693 305.3623 a 2.60951 2.60951 0 0 0 -2.38819 3.51752 c 0.84326 1.81579 3.7472 1.82361 5.03778 0.293 a 3.95175 3.95175 0 0 0 -1.01922 -5.72248 Z" stroke-linecap="round" />
</g>
		<g transform="matrix(1 0 0 1 -176.33 -99.93)"  >
<path style="stroke: none; stroke-width: 1; stroke-dasharray: none; stroke-linecap: butt; stroke-dashoffset: 0; stroke-linejoin: miter; stroke-miterlimit: 4; fill: rgb(230,230,230); fill-rule: nonzero; opacity: 1;"  transform=" translate(-423.67, -350.07)" d="M 423.1223 348.37329 a 2.61313 2.61313 0 0 0 -1.83178 3.26855 l 2.41076 0.16742 q 1.22462 -0.61469 2.44922 -1.22943 A 2.61316 2.61316 0 0 0 423.1223 348.37329 Z" stroke-linecap="round" />
</g>
		<g transform="matrix(1 0 0 1 -185.31 -95.34)"  >
<path style="stroke: none; stroke-width: 1; stroke-dasharray: none; stroke-linecap: butt; stroke-dashoffset: 0; stroke-linejoin: miter; stroke-miterlimit: 4; fill: rgb(230,230,230); fill-rule: nonzero; opacity: 1;"  transform=" translate(-414.69, -354.66)" d="M 413.32293 351.35559 a 4.98264 4.98264 0 0 0 -2.08856 4.36114 a 3.98563 3.98563 0 0 0 3.11883 3.52429 a 3.3318 3.3318 0 0 0 3.76532 -2.55371 c 0.40772 -2.49371 -2.27222 -4.32 -3.23535 -6.656 Z" stroke-linecap="round" />
</g>
		<g transform="matrix(1 0 0 1 -90.18 -116.06)"  >
<path style="stroke: none; stroke-width: 1; stroke-dasharray: none; stroke-linecap: butt; stroke-dashoffset: 0; stroke-linejoin: miter; stroke-miterlimit: 4; fill: rgb(230,230,230); fill-rule: nonzero; opacity: 1;"  transform=" translate(-509.82, -333.94)" d="M 506.95867 334.88665 c 0.25452 1.872 -1.43219 3.51184 -1.49487 5.40009 c -0.07441 2.24035 2.36425 3.98334 4.595 3.76349 a 7.26583 7.26583 0 0 0 5.21954 -3.83393 l 0.04822 -0.21 q -1.62982 -1.84213 -3.25964 -3.68432 c -1.33435 -1.50818 -2.74891 -3.22492 -2.6966 -5.238 c 0.02582 -0.99237 0.41693 -1.95392 0.39478 -2.94641 a 7.13933 7.13933 0 0 0 -0.47248 -2.08246 c -0.29425 -0.878 -0.69482 -1.86743 -1.57214 -2.16376 c -1.09814 -0.371 -2.2063 0.60218 -2.73053 1.636 a 6.47212 6.47212 0 0 0 0.19141 6.09546 C 505.81573 332.70031 506.79021 333.64776 506.95867 334.88665 Z" stroke-linecap="round" />
</g>
		<g transform="matrix(1 0 0 1 -100.67 -111.38)"  >
<path style="stroke: none; stroke-width: 1; stroke-dasharray: none; stroke-linecap: butt; stroke-dashoffset: 0; stroke-linejoin: miter; stroke-miterlimit: 4; fill: rgb(230,230,230); fill-rule: nonzero; opacity: 1;"  transform=" translate(-499.33, -338.62)" d="M 496.71215 341.473 a 1.87206 1.87206 0 0 0 1.56128 0.1001 a 8.17012 8.17012 0 0 0 2.747 -0.99817 a 2.774 2.774 0 0 0 1.34362 -2.45325 a 3.20931 3.20931 0 0 0 -2.61383 -2.42712 a 2.81063 2.81063 0 0 0 -2.615 0.39947 c -0.80963 0.75946 -0.71289 2.04846 -0.55438 3.14716 l -0.17065 0.28625 C 496.25792 340.20605 496.16045 341.04968 496.71215 341.473 Z" stroke-linecap="round" />
</g>
		<g transform="matrix(1 0 0 1 67.3 -29.4)"  >
<path style="stroke: none; stroke-width: 1; stroke-dasharray: none; stroke-linecap: butt; stroke-dashoffset: 0; stroke-linejoin: miter; stroke-miterlimit: 4; fill: rgb(230,230,230); fill-rule: nonzero; opacity: 1;"  transform=" translate(-667.3, -420.6)" d="M 667.738 421.47607 q -0.35258 -0.87671 -0.7052 -1.75336 C 666.71062 420.51647 666.83031 421.32836 667.738 421.47607 Z" stroke-linecap="round" />
</g>
		<g transform="matrix(1 0 0 1 58.83 -118.4)"  >
<path style="stroke: none; stroke-width: 1; stroke-dasharray: none; stroke-linecap: butt; stroke-dashoffset: 0; stroke-linejoin: miter; stroke-miterlimit: 4; fill: rgb(230,230,230); fill-rule: nonzero; opacity: 1;"  transform=" translate(-658.83, -331.6)" d="M 808.815 298.549 c -3.01581 -3.2721 -4.86267 -5.15857 -6.76727 -9.21442 a 14.93093 14.93093 0 0 0 -11.29742 -8.48395 c -6.2566 -1.03076 -12.65033 0.60144 -18.98291 0.27436 c -10.14344 -0.52393 -19.28974 -5.96436 -29.00354 -8.93183 a 121.36633 121.36633 0 0 0 -16.57538 -3.41852 q -4.8383 -0.7652 -9.67676 -1.53033 c -10.57324 -1.67212 -21.21387 -3.34912 -31.91632 -3.12708 c -3.08612 0.06409 -7.38532 -0.86352 -7.138 -3.94036 c 0.30713 -3.82148 7.18249 -3.31977 8.505 -6.91828 c 0.81818 -2.226 -1.14007 -4.56317 -3.28747 -5.5697 c -2.1474 -1.00659 -4.6261 -1.30921 -6.575 -2.66065 c -1.94891 -1.35131 -3.01678 -4.484 -1.22552 -6.03845 q -7.44726 3.81766 -14.89429 7.63544 c -4.12768 2.116 -8.7395 4.869 -9.46856 9.44983 a 10.94989 10.94989 0 0 0 -6.14777 4.271 c -2.7926 0.01453 -4.9873 2.69568 -5.44794 5.45014 c -0.46069 2.75445 0.37665 5.54217 1.20447 8.20941 c -1.01294 -1.94031 -2.089 -3.95465 -3.87445 -5.22076 c -1.78552 -1.26606 -4.50348 -1.50721 -6.02557 0.06561 c -1.562 1.61395 -1.19678 4.32184 -0.0918 6.27728 c 1.1051 1.95545 2.80243 3.53375 3.84515 5.5232 c 3.25653 6.21344 -2.64428 14.96118 -9.62506 14.2691 q 0.70221 -9.62412 1.4046 -19.24817 a 12.88138 12.88138 0 0 0 -0.48474 -5.88745 c -0.76147 -1.83667 -2.71142 -3.34515 -4.65185 -2.91144 c -3.48889 0.77985 -3.19086 5.89063 -1.73938 9.15778 c 1.45129 3.26721 2.89813 7.81073 -0.06452 9.81158 c -1.91327 1.29212 -4.50732 0.49414 -6.57281 -0.53729 c -2.06555 -1.03131 -4.27521 -2.30231 -6.533 -1.8205 c -2.25788 0.48188 -3.67774 3.93323 -1.68286 5.0954 q -4.96244 -0.86233 -9.92475 -1.72473 a 7.05958 7.05958 0 0 1 -8.83355 5.6358 q -0.48715 -2.01882 -0.97431 -4.03778 q -0.7262 -0.20214 -1.45221 -0.40436 c 1.51959 0.42316 -0.85809 6.83173 -2.98944 11.72724 c -2.86535 -0.336 -7.053 -0.40076 -7.5307 -1.2218 c -2.288 -3.93189 -2.01636 -13.29755 -5.99152 -15.50965 q -2.99039 -1.664 -6.13293 -3.03253 a 14.38468 14.38468 0 0 0 -3.46027 -1.13611 c -2.44146 -0.38476 -4.90258 0.37244 -7.25824 1.12055 c -2.78344 0.88391 -5.63177 1.80114 -7.93646 3.595 a 24.82774 24.82774 0 0 0 -4.99939 5.94519 q -6.82579 10.1022 -13.65161 20.20428 a 21.65077 21.65077 0 0 0 -3.16174 5.92511 a 7.74158 7.74158 0 0 0 0.7204 6.41346 a 4.96285 4.96285 0 0 0 5.81237 1.98608 c 1.31891 -0.57092 2.6399 -1.86487 3.94684 -1.26721 c 0.98981 0.45257 1.23731 1.75354 1.13349 2.837 a 7.57833 7.57833 0 0 0 -0.05811 3.23261 c 0.59509 1.68652 2.88409 2.27337 4.51685 1.54352 a 6.98156 6.98156 0 0 0 3.31817 -4.04 c 1.57343 -4.03473 1.41284 -8.49915 1.80457 -12.81208 c 0.3916 -4.31292 1.57055 -8.9259 4.971 -11.6076 c 1.01782 -0.80273 2.5133 -1.38141 3.56109 -0.618 a 2.54567 2.54567 0 0 1 0.626 2.89007 a 11.31894 11.31894 0 0 1 -1.6969 2.66559 a 14.61319 14.61319 0 0 0 -2.40393 11.40564 l 0.69495 0.43006 c 2.65136 -0.68769 6.19976 0.54364 9.71984 1.72448 a 12.65142 12.65142 0 0 0 -6.4284 4.42157 c -4.06873 5.70868 -7.01367 11.111 -15.06262 11.04315 c -1.90943 -0.01605 -3.80262 -0.39361 -5.7121 -0.39776 a 7.46652 7.46652 0 0 0 -5.297 1.7641 c -1.44769 1.41748 -1.89514 3.57556 -3.1336 5.17908 c -1.6283 2.10821 -4.35028 2.96563 -6.83606 3.92321 c -1.81672 0.69983 -3.73163 1.64368 -4.56665 3.40241 a 8.4288 8.4288 0 0 0 -0.34992 4.50647 c 0.27985 2.66345 0.77539 5.6925 3.03485 7.13025 a 7.18817 7.18817 0 0 0 5.53168 0.468 c 2.3501 -0.57171 4.6488 -1.64837 7.06213 -1.48755 c 3.78962 0.25251 6.91028 3.89014 6.94861 7.68793 c 0.01947 1.92236 -0.54144 4.12738 0.73279 5.567 c 1.1972 1.35266 3.57208 1.11157 4.8125 -0.20172 a 5.54547 5.54547 0 0 0 1.04523 -5.09034 a 16.3735 16.3735 0 0 0 -2.39765 -4.83056 a 5.63743 5.63743 0 0 1 6.48706 2.999 c 0.84174 1.87006 0.56971 4.02783 0.83814 6.06091 c 0.26861 2.03308 1.50641 4.29273 3.55377 4.40991 a 2.86847 2.86847 0 0 0 2.88452 -2.264 a 20.619 20.619 0 0 0 -0.16833 -3.0871 a 3.95449 3.95449 0 0 1 3.99383 -3.68012 a 5.63552 5.63552 0 0 0 1.38129 7.03772 c 1.55823 1.20575 3.61755 1.47516 5.55871 1.81214 s 4.01148 0.86975 5.26435 2.39038 c 2.08667 2.53265 -0.46655 3.67346 -0.86408 5.8183 c -0.48785 2.63324 1.71155 6.52185 2.55628 9.041 q 5.82366 8.14683 11.64721 16.29358 a 19.71321 19.71321 0 0 0 3.0445 3.60913 c 3.8324 3.29169 10.15051 2.96686 13.82574 -0.4992 a 11.85327 11.85327 0 0 0 2.01282 -13.93909 c -2.27124 -4.13446 -6.77154 -6.695 -8.994 -10.85584 a 23.7238 23.7238 0 0 0 13.023 5.35572 A 65.66633 65.66633 0 0 1 625.48223 403.96 a 32.99275 32.99275 0 0 0 8.13623 20.2511 a 29.16064 29.16064 0 0 1 8.46112 -16.80268 c 2.991 -2.91693 7.0777 -5.26867 11.18127 -4.48425 c 4.10352 0.78436 7.21674 6.01709 4.73475 9.37781 q 3.11947 0.232 6.239 0.464 q 1.399 3.47826 2.79816 6.95672 a 2.40892 2.40892 0 0 1 2.35 -1.63135 c 1.947 0.29395 3.31244 2.10541 5.16437 2.77424 c 3.491 1.26074 7.22284 -2.23163 7.67426 -5.91565 c 0.45153 -3.68409 -1.30121 -7.24085 -3.00385 -10.53888 a 19.6706 19.6706 0 0 0 20.21265 -29.84619 a 50.0912 50.0912 0 0 1 14.07123 -10.3595 c 4.86877 -2.4054 10.19451 -4.0564 14.4497 -7.43054 c 4.25513 -3.37415 7.23944 -9.23316 5.19269 -14.26325 c -1.446 -3.5534 -5.07227 -5.96509 -6.15765 -9.64471 c -1.571 -5.32654 3.20153 -10.836 8.5932 -12.16681 c 5.3916 -1.33075 11.022 0.30493 16.33307 1.92785 c -0.816 -5.465 5.51843 -10.58819 10.692 -8.64764 q 3.25021 -1.31607 6.50037 -2.63214 c -2.51172 5.53778 -7.95435 9.061 -11.95636 13.6391 c -4.00208 4.57794 -6.3855 12.03308 -2.2049 16.44867 q 8.98838 -8.14673 17.97675 -16.29346 q 9.402 -8.52164 18.80377 -17.04321 q -0.449 -1.31872 -0.89783 -2.63751 C 796.7564 303.20935 803.14293 301.34625 808.815 298.549 Z" stroke-linecap="round" />
</g>
		<g transform="matrix(1 0 0 1 -95.72 -82.75)"  >
<path style="stroke: none; stroke-width: 1; stroke-dasharray: none; stroke-linecap: butt; stroke-dashoffset: 0; stroke-linejoin: miter; stroke-miterlimit: 4; fill: rgb(230,230,230); fill-rule: nonzero; opacity: 1;"  transform=" translate(-504.28, -367.25)" d="M 497.572 371.64526 a 2.06347 2.06347 0 0 0 0.0119 2.3717 a 1.816 1.816 0 0 0 2.31348 0.03113 a 5.29522 5.29522 0 0 0 1.46552 -2.02875 a 3.30109 3.30109 0 0 0 3.3565 1.75788 a 8.25524 8.25524 0 0 0 3.70319 -1.54431 a 8.118 8.118 0 0 0 2.2489 -1.951 a 3.21152 3.21152 0 0 0 0.56506 -2.82733 a 4.87108 4.87108 0 0 0 -1.4613 -1.88642 q -2.37844 -2.197 -4.75684 -4.394 l -0.53729 -0.161 a 3.03041 3.03041 0 0 0 -4.3717 -0.04663 c -0.98456 1.10223 -0.989 2.74884 -0.8385 4.21911 s 0.38464 3.03663 -0.27 4.36176 C 498.62572 370.307 497.99 370.90832 497.572 371.64526 Z" stroke-linecap="round" />
</g>
		<g transform="matrix(1 0 0 1 -62.52 -15.14)"  >
<path style="stroke: none; stroke-width: 1; stroke-dasharray: none; stroke-linecap: butt; stroke-dashoffset: 0; stroke-linejoin: miter; stroke-miterlimit: 4; fill: rgb(230,230,230); fill-rule: nonzero; opacity: 1;"  transform=" translate(-537.48, -434.86)" d="M 589.56725 421.67559 a 33.06336 33.06336 0 0 1 -25.12494 -25.25366 c -0.58429 -2.91113 -0.84912 -6.0918 -2.78576 -8.34241 c -1.87476 -2.17883 -4.93787 -2.96521 -7.81226 -2.965 c -2.87433 0.00024 -5.70795 0.66174 -8.57672 0.84064 c -5.01593 0.3128 -10.33057 -1.01215 -13.91742 -4.53235 c -1.69855 -1.66693 -2.98444 -3.78394 -4.9682 -5.0987 c -2.66614 -1.767 -6.20081 -1.76568 -9.23865 -0.76446 c -3.38367 1.11517 -6.09192 4.16668 -9.79175 3.7467 c -3.84784 -0.43677 -8.30743 -1.79687 -9.816 3.26972 c -0.43438 1.4588 -0.28644 3.05883 -0.83648 4.47815 c -0.84778 2.18725 -3.09827 3.42041 -4.8783 4.9483 c -3.58557 3.07776 -5.49146 7.75329 -6.13354 12.43481 c -0.642 4.68152 -0.14527 9.43573 0.352 14.13483 c 0.26819 2.53455 0.621 5.26215 2.362 7.12366 c 2.42676 2.59485 6.49921 2.4945 10.03992 2.20215 q 6.17048 -0.5095 12.34094 -1.01893 c 2.21759 -0.1831 4.744 -0.2608 6.32276 1.30719 c 0.946 0.93952 1.34631 2.29889 2.1781 3.34082 a 5.12886 5.12886 0 0 0 6.25751 1.26166 a 10.38827 10.38827 0 0 0 7.83685 15.39136 l 0.317 0.2 c -2.63361 4.50989 -5.36609 9.57385 -4.274 14.68091 c 0.9364 4.37891 4.563 7.88965 5.156 12.32813 c 0.54413 4.07226 -1.58062 8.23693 -0.64062 12.23645 c 0.9519 4.05017 5.04217 6.8739 9.19177 7.17535 s 8.22656 -1.53937 11.4408 -4.18109 s 5.69964 -6.04419 8.14868 -9.40759 c 1.51221 -2.07679 3.0628 -4.2381 3.582 -6.75415 c 0.55243 -2.67719 -0.088 -5.64423 1.21381 -8.04792 c 1.50134 -2.77209 5.06518 -3.81115 6.86407 -6.40008 c 2.32935 -3.35248 0.957 -7.91815 1.47192 -11.9679 C 577.123 438.02026 589.85674 431.77417 589.56725 421.67559 Z" stroke-linecap="round" />
</g>
		<g transform="matrix(1 0 0 1 -14.62 16.12)"  >
<path style="stroke: none; stroke-width: 1; stroke-dasharray: none; stroke-linecap: butt; stroke-dashoffset: 0; stroke-linejoin: miter; stroke-miterlimit: 4; fill: rgb(230,230,230); fill-rule: nonzero; opacity: 1;"  transform=" translate(-585.38, -466.12)" d="M 587.72838 455.89007 c -0.34838 1.56482 -1.81353 2.59509 -3.20977 3.38275 c -1.39624 0.78772 -2.93177 1.58234 -3.64313 3.01892 c -0.72858 1.4715 -0.39569 3.22492 -0.01453 4.822 q 1.18945 4.98359 2.8017 9.8534 a 100.33947 100.33947 0 0 0 5.44556 -12.18695 a 16.01347 16.01347 0 0 0 1.195 -4.88611 a 6.04235 6.04235 0 0 0 -1.64319 -4.61749 Z" stroke-linecap="round" />
</g>
		<g transform="matrix(1 0 0 1 69.39 -12.43)"  >
<path style="stroke: none; stroke-width: 1; stroke-dasharray: none; stroke-linecap: butt; stroke-dashoffset: 0; stroke-linejoin: miter; stroke-miterlimit: 4; fill: rgb(230,230,230); fill-rule: nonzero; opacity: 1;"  transform=" translate(-669.39, -437.57)" d="M 673.418 438.46 q -2.62455 -3.02985 -5.249 -6.0597 c -1.1966 -1.38134 -2.56116 -2.8565 -4.37415 -3.087 l -0.74646 0.47681 q 2.27564 5.41845 4.55133 10.83691 a 10.28934 10.28934 0 0 0 2.74817 4.32263 c 1.358 1.06708 3.55988 1.272 4.6925 -0.0318 a 3.48 3.48 0 0 0 0.41144 -3.452 A 10.25283 10.25283 0 0 0 673.418 438.46 Z" stroke-linecap="round" />
</g>
		<g transform="matrix(1 0 0 1 89.46 -13.85)"  >
<path style="stroke: none; stroke-width: 1; stroke-dasharray: none; stroke-linecap: butt; stroke-dashoffset: 0; stroke-linejoin: miter; stroke-miterlimit: 4; fill: rgb(230,230,230); fill-rule: nonzero; opacity: 1;"  transform=" translate(-689.46, -436.15)" d="M 690.37206 442.32782 a 5.03 5.03 0 0 0 2.97394 -2.77222 a 14.91 14.91 0 0 0 1.0639 -4.03748 q 0.44851 -2.713 0.897 -5.42608 l -0.39106 -0.10059 a 1.74231 1.74231 0 0 0 -2.20874 0.61285 a 8.65307 8.65307 0 0 0 -0.9898 2.31177 a 2.80065 2.80065 0 0 1 -1.5987 1.838 c -1.40448 0.42383 -2.73468 -1.06463 -4.20062 -1.00653 a 2.64077 2.64077 0 0 0 -2.29419 2.35492 a 5.11967 5.11967 0 0 0 0.95972 3.36377 C 685.83373 441.40686 688.15368 442.96636 690.37206 442.32782 Z" stroke-linecap="round" />
</g>
		<g transform="matrix(1 0 0 1 101.94 -9.55)"  >
<path style="stroke: none; stroke-width: 1; stroke-dasharray: none; stroke-linecap: butt; stroke-dashoffset: 0; stroke-linejoin: miter; stroke-miterlimit: 4; fill: rgb(230,230,230); fill-rule: nonzero; opacity: 1;"  transform=" translate(-701.94, -440.45)" d="M 700.04625 445.75689 l 4.03217 -10.62018 A 10.35765 10.35765 0 0 0 700.04625 445.75689 Z" stroke-linecap="round" />
</g>
		<g transform="matrix(1 0 0 1 134.43 -5.67)"  >
<path style="stroke: none; stroke-width: 1; stroke-dasharray: none; stroke-linecap: butt; stroke-dashoffset: 0; stroke-linejoin: miter; stroke-miterlimit: 4; fill: rgb(230,230,230); fill-rule: nonzero; opacity: 1;"  transform=" translate(-734.43, -444.33)" d="M 720.6245 437.19567 l -0.81537 0.03461 a 5.26048 5.26048 0 0 0 -0.04443 4.65735 a 10.49593 10.49593 0 0 0 3.042 3.69788 a 21.36911 21.36911 0 0 0 6.71094 3.74725 a 42.70678 42.70678 0 0 0 11.0271 1.69836 q 3.202 0.20957 6.404 0.41907 c 1.01672 0.06653 2.33209 -0.06244 2.61475 -1.04132 c 0.23346 -0.80847 -0.45539 -1.56842 -1.09833 -2.11133 a 40.2389 40.2389 0 0 0 -19.79022 -8.9823 C 725.90764 438.8944 722.97118 438.72143 720.6245 437.19567 Z" stroke-linecap="round" />
</g>
		<g transform="matrix(1 0 0 1 120.63 28.76)"  >
<path style="stroke: none; stroke-width: 1; stroke-dasharray: none; stroke-linecap: butt; stroke-dashoffset: 0; stroke-linejoin: miter; stroke-miterlimit: 4; fill: rgb(230,230,230); fill-rule: nonzero; opacity: 1;"  transform=" translate(-720.63, -478.76)" d="M 743.4099 465.38049 q -2.30273 -2.23307 -4.60553 -4.466 c -1.493 -1.44781 -3.72979 -2.98217 -5.44079 -1.8 c -0.98346 0.6795 -1.28675 2.0047 -2.1203 2.86145 a 4.09448 4.09448 0 0 1 -3.79731 0.90417 a 12.0832 12.0832 0 0 1 -3.666 -1.73761 l -3.80951 -2.36389 q -1.97168 -1.2235 -3.94342 -2.447 l -2.96643 2.88293 c 0.129 -1.41876 -1.76264 -2.34051 -3.07221 -1.7796 a 4.74593 4.74593 0 0 0 -2.36285 3.37757 a 18.47208 18.47208 0 0 1 -1.13385 4.10675 c -1.50629 2.88354 -5.16333 3.73767 -8.38055 4.22064 s -6.86207 1.16315 -8.584 3.92334 c -1.43427 2.299 -1.00464 5.251 -0.52533 7.918 l 1.81311 10.09 a 5.51461 5.51461 0 0 0 1.39374 3.29437 c 1.593 1.40594 4.0603 0.55115 6.00433 -0.30634 a 40.60143 40.60143 0 0 1 12.90418 -3.73993 a 18.62233 18.62233 0 0 1 12.785 3.2746 c 2.30572 1.75549 4.06409 4.18591 6.50677 5.74512 a 12.90664 12.90664 0 0 0 11.289 0.98529 a 16.80847 16.80847 0 0 0 8.58581 -7.65662 a 20.11323 20.11323 0 0 0 -0.43335 -19.91089 A 39.47733 39.47733 0 0 0 743.4099 465.38049 Z" stroke-linecap="round" />
</g>
		<g transform="matrix(1 0 0 1 141.65 58.76)"  >
<path style="stroke: none; stroke-width: 1; stroke-dasharray: none; stroke-linecap: butt; stroke-dashoffset: 0; stroke-linejoin: miter; stroke-miterlimit: 4; fill: rgb(230,230,230); fill-rule: nonzero; opacity: 1;"  transform=" translate(-741.65, -508.76)" d="M 738.88335 506.4887 a 2.71231 2.71231 0 0 0 -0.17224 3.21546 a 4.4432 4.4432 0 0 0 2.83832 1.82709 a 13.19065 13.19065 0 0 0 3.45123 0.15808 l 0.03516 -0.86109 a 8.84169 8.84169 0 0 0 -2.0213 -4.07324 C 741.90233 505.69787 739.93706 505.37329 738.88335 506.4887 Z" stroke-linecap="round" />
</g>
		<g transform="matrix(1 0 0 1 177.01 62.73)"  >
<path style="stroke: none; stroke-width: 1; stroke-dasharray: none; stroke-linecap: butt; stroke-dashoffset: 0; stroke-linejoin: miter; stroke-miterlimit: 4; fill: rgb(230,230,230); fill-rule: nonzero; opacity: 1;"  transform=" translate(-777.01, -512.73)" d="M 778.41552 507.4093 l -0.55011 -0.2013 q -1.96491 2.96155 -3.92969 5.9231 c -0.70483 1.06238 -1.44043 2.33819 -1.01044 3.53839 c 0.50891 1.42035 2.39045 1.83667 3.85175 1.4613 a 6.07688 6.07688 0 0 0 4.39441 -4.8233 A 5.96666 5.96666 0 0 0 778.41552 507.4093 Z" stroke-linecap="round" />
</g>
		<g transform="matrix(1 0 0 1 187.36 51.8)"  >
<path style="stroke: none; stroke-width: 1; stroke-dasharray: none; stroke-linecap: butt; stroke-dashoffset: 0; stroke-linejoin: miter; stroke-miterlimit: 4; fill: rgb(230,230,230); fill-rule: nonzero; opacity: 1;"  transform=" translate(-787.36, -501.8)" d="M 788.402 501.14331 l -3.61652 -2.87494 q -0.07242 2.0007 -0.145 4.00134 l -0.13568 0.00226 a 26.56389 26.56389 0 0 1 2.3573 2.34418 c 0.8465 0.71966 2.26673 1.04888 2.99024 0.20568 a 1.89163 1.89163 0 0 0 0.078 -2.08746 A 5.55229 5.55229 0 0 0 788.402 501.14331 Z" stroke-linecap="round" />
</g>
		<g transform="matrix(1 0 0 1 124.71 -74.5)"  >
<path style="stroke: none; stroke-width: 1; stroke-dasharray: none; stroke-linecap: butt; stroke-dashoffset: 0; stroke-linejoin: miter; stroke-miterlimit: 4; fill: rgb(230,230,230); fill-rule: nonzero; opacity: 1;"  transform=" translate(-724.71, -375.5)" d="M 723.06768 376.064 c -1.51746 -0.04749 -3.197 -0.13971 -4.373 0.8205 a 5.86674 5.86674 0 0 0 -1.009 1.17651 l -0.41473 0.58044 a 15.95522 15.95522 0 0 0 -1.61548 2.598 a 3.427 3.427 0 0 0 -0.21991 2.834 a 1.64326 1.64326 0 0 0 2.42517 0.69611 c 0.64856 -0.60083 0.49713 -1.6905 0.98742 -2.42621 a 2.2668 2.2668 0 0 1 1.82593 -0.87311 a 12.00736 12.00736 0 0 1 2.085 0.23572 a 10.05966 10.05966 0 0 0 9.8451 -15.37873 l -0.12213 -0.3728 a 4.49308 4.49308 0 0 0 -4.55744 3.51325 c -0.33948 1.76806 0.38007 3.822 -0.69177 5.26849 C 726.329 375.95593 724.58507 376.11145 723.06768 376.064 Z" stroke-linecap="round" />
</g>
		<g transform="matrix(1 0 0 1 134.48 -90.12)"  >
<path style="stroke: none; stroke-width: 1; stroke-dasharray: none; stroke-linecap: butt; stroke-dashoffset: 0; stroke-linejoin: miter; stroke-miterlimit: 4; fill: rgb(230,230,230); fill-rule: nonzero; opacity: 1;"  transform=" translate(-734.48, -359.88)" d="M 736.65148 357.31939 l -0.23114 -0.02008 a 11.73054 11.73054 0 0 0 -3.84827 1.4339 a 1.783 1.783 0 0 0 -0.87683 0.88934 a 1.29378 1.29378 0 0 0 0.30628 1.19037 a 3.8171 3.8171 0 0 0 1.02038 0.768 a 6.07359 6.07359 0 0 0 1.85443 0.82953 a 2.05854 2.05854 0 0 0 1.89307 -0.4892 a 2.73529 2.73529 0 0 0 0.44409 -2.26678 A 11.91924 11.91924 0 0 0 736.65148 357.31939 Z" stroke-linecap="round" />
</g>
		<g transform="matrix(1 0 0 1 112.25 -75.22)"  >
<path style="stroke: none; stroke-width: 1; stroke-dasharray: none; stroke-linecap: butt; stroke-dashoffset: 0; stroke-linejoin: miter; stroke-miterlimit: 4; fill: rgb(230,230,230); fill-rule: nonzero; opacity: 1;"  transform=" translate(-712.25, -374.78)" d="M 713.26232 376.51434 a 5.84546 5.84546 0 0 0 0.76141 -1.892 q 0.21231 -0.78077 0.4245 -1.56152 l -1.51257 -0.919 a 8.75981 8.75981 0 0 0 -1.98 1.41156 a 2.95428 2.95428 0 0 0 -0.90845 2.18781 a 1.80619 1.80619 0 0 0 1.48486 1.68554 A 1.98383 1.98383 0 0 0 713.26232 376.51434 Z" stroke-linecap="round" />
</g>
		<g transform="matrix(1 0 0 1 -50.99 -212.1)"  >
<path style="stroke: none; stroke-width: 1; stroke-dasharray: none; stroke-linecap: butt; stroke-dashoffset: 0; stroke-linejoin: miter; stroke-miterlimit: 4; fill: rgb(230,230,230); fill-rule: nonzero; opacity: 1;"  transform=" translate(-549.01, -237.9)" d="M 548.47674 235.85046 c -0.59833 0.37286 -0.42914 1.27417 -0.18647 1.936 q 0.41795 1.13966 0.83576 2.27924 l 0.38983 -1.47485 a 3.13408 3.13408 0 0 0 0.43115 -1.902 C 549.81206 236.04058 549.03869 235.50024 548.47674 235.85046 Z" stroke-linecap="round" />
</g>
		<g transform="matrix(1 0 0 1 199.64 -190.79)"  >
<path style="stroke: none; stroke-width: 1; stroke-dasharray: none; stroke-linecap: butt; stroke-dashoffset: 0; stroke-linejoin: miter; stroke-miterlimit: 4; fill: rgb(255,255,255); fill-rule: nonzero; opacity: 1;"  transform=" translate(-799.64, -259.21)" d="M 926.14176 372.71065 h -253 a 23.02589 23.02589 0 0 1 -23 -23 v -181 a 23.02621 23.02621 0 0 1 23 -23 h 253 a 23.0262 23.0262 0 0 1 23 23 v 181 A 23.02588 23.02588 0 0 1 926.14176 372.71065 Z" stroke-linecap="round" />
</g>
		<g transform="matrix(1 0 0 1 199.64 -190.79)"  >
<path style="stroke: none; stroke-width: 1; stroke-dasharray: none; stroke-linecap: butt; stroke-dashoffset: 0; stroke-linejoin: miter; stroke-miterlimit: 4; fill: rgb(63,61,86); fill-rule: nonzero; opacity: 1;"  transform=" translate(-799.64, -259.21)" d="M 926.14176 372.71065 h -253 a 23.02589 23.02589 0 0 1 -23 -23 v -181 a 23.02621 23.02621 0 0 1 23 -23 h 253 a 23.0262 23.0262 0 0 1 23 23 v 181 A 23.02588 23.02588 0 0 1 926.14176 372.71065 Z m -253 -225 a 21.02359 21.02359 0 0 0 -21 21 v 181 a 21.0239 21.0239 0 0 0 21 21 h 253 a 21.0239 21.0239 0 0 0 21 -21 v -181 a 21.02359 21.02359 0 0 0 -21 -21 Z" stroke-linecap="round" />
</g>
		<g transform="matrix(1 0 0 1 121.98 -280.73)"  >
<path style="stroke: none; stroke-width: 1; stroke-dasharray: none; stroke-linecap: butt; stroke-dashoffset: 0; stroke-linejoin: miter; stroke-miterlimit: 4; fill: rgb(204,204,204); fill-rule: nonzero; opacity: 1;"  transform=" translate(-721.98, -169.27)" d="M 741.97641 173.26971 h -40 a 4 4 0 0 1 0 -8 h 40 a 4 4 0 0 1 0 8 Z" stroke-linecap="round" />
</g>
		<g transform="matrix(1 0 0 1 165.48 -190.73)"  >
<path style="stroke: none; stroke-width: 1; stroke-dasharray: none; stroke-linecap: butt; stroke-dashoffset: 0; stroke-linejoin: miter; stroke-miterlimit: 4; fill: rgb(204,204,204); fill-rule: nonzero; opacity: 1;"  transform=" translate(-765.48, -259.27)" d="M 828.97641 263.26971 h -127 a 4 4 0 0 1 0 -8 h 127 a 4 4 0 1 1 0 8 Z" stroke-linecap="round" />
</g>
		<g transform="matrix(1 0 0 1 124.47 -238.8)"  >
<circle style="stroke: none; stroke-width: 1; stroke-dasharray: none; stroke-linecap: butt; stroke-dashoffset: 0; stroke-linejoin: miter; stroke-miterlimit: 4; fill: rgb(159,230,155); fill-rule: nonzero; opacity: 1;"  cx="0" cy="0" r="26.8189" />
</g>
		<g transform="matrix(1 0 0 1 100.98 -109.34)"  >
<rect style="stroke: none; stroke-width: 1; stroke-dasharray: none; stroke-linecap: butt; stroke-dashoffset: 0; stroke-linejoin: miter; stroke-miterlimit: 4; fill: rgb(63,61,86); fill-rule: nonzero; opacity: 1;"  x="-3" y="-1" rx="0" ry="0" width="6" height="2" />
</g>
		<g transform="matrix(1 0 0 1 198.35 -109.34)"  >
<path style="stroke: none; stroke-width: 1; stroke-dasharray: none; stroke-linecap: butt; stroke-dashoffset: 0; stroke-linejoin: miter; stroke-miterlimit: 4; fill: rgb(63,61,86); fill-rule: nonzero; opacity: 1;"  transform=" translate(-798.35, -340.66)" d="M 880.14507 341.6574 h -12.5835 v -2 h 12.5835 Z m -25.167 0 h -12.5835 v -2 h 12.5835 Z m -25.167 0 h -12.5835 v -2 h 12.5835 Z m -25.16651 0 H 792.06109 v -2 h 12.58349 Z m -25.167 0 h -12.5835 v -2 h 12.5835 Z m -25.167 0 H 741.7271 v -2 h 12.5835 Z m -25.167 0 h -12.5835 v -2 h 12.5835 Z" stroke-linecap="round" />
</g>
		<g transform="matrix(1 0 0 1 295.73 -109.34)"  >
<rect style="stroke: none; stroke-width: 1; stroke-dasharray: none; stroke-linecap: butt; stroke-dashoffset: 0; stroke-linejoin: miter; stroke-miterlimit: 4; fill: rgb(63,61,86); fill-rule: nonzero; opacity: 1;"  x="-3" y="-1" rx="0" ry="0" width="6" height="2" />
</g>
		<g transform="matrix(1 0 0 1 197.31 -128.73)"  >
<rect style="stroke: none; stroke-width: 1; stroke-dasharray: none; stroke-linecap: butt; stroke-dashoffset: 0; stroke-linejoin: miter; stroke-miterlimit: 4; fill: rgb(159,230,155); fill-rule: nonzero; opacity: 1;"  x="-2.5" y="-17" rx="0" ry="0" width="5" height="34" />
</g>
		<g transform="matrix(1 0 0 1 248.31 -128.73)"  >
<rect style="stroke: none; stroke-width: 1; stroke-dasharray: none; stroke-linecap: butt; stroke-dashoffset: 0; stroke-linejoin: miter; stroke-miterlimit: 4; fill: rgb(159,230,155); fill-rule: nonzero; opacity: 1;"  x="-2.5" y="-17" rx="0" ry="0" width="5" height="34" />
</g>
		<g transform="matrix(1 0 0 1 273.31 -119.23)"  >
<rect style="stroke: none; stroke-width: 1; stroke-dasharray: none; stroke-linecap: butt; stroke-dashoffset: 0; stroke-linejoin: miter; stroke-miterlimit: 4; fill: rgb(159,230,155); fill-rule: nonzero; opacity: 1;"  x="-2.5" y="-7.5" rx="0" ry="0" width="5" height="15" />
</g>
		<g transform="matrix(1 0 0 1 222.31 -136.23)"  >
<rect style="stroke: none; stroke-width: 1; stroke-dasharray: none; stroke-linecap: butt; stroke-dashoffset: 0; stroke-linejoin: miter; stroke-miterlimit: 4; fill: rgb(159,230,155); fill-rule: nonzero; opacity: 1;"  x="-2.5" y="-24.5" rx="0" ry="0" width="5" height="49" />
</g>
		<g transform="matrix(1 0 0 1 -259.19 -83.73)"  >
<circle style="stroke: none; stroke-width: 1; stroke-dasharray: none; stroke-linecap: butt; stroke-dashoffset: 0; stroke-linejoin: miter; stroke-miterlimit: 4; fill: rgb(159,230,155); fill-rule: nonzero; opacity: 1;"  cx="0" cy="0" r="6" />
</g>
		<g transform="matrix(1 0 0 1 -243.19 -112.73)"  >
<circle style="stroke: none; stroke-width: 1; stroke-dasharray: none; stroke-linecap: butt; stroke-dashoffset: 0; stroke-linejoin: miter; stroke-miterlimit: 4; fill: rgb(159,230,155); fill-rule: nonzero; opacity: 1;"  cx="0" cy="0" r="6" />
</g>
		<g transform="matrix(1 0 0 1 -67.19 -135.73)"  >
<circle style="stroke: none; stroke-width: 1; stroke-dasharray: none; stroke-linecap: butt; stroke-dashoffset: 0; stroke-linejoin: miter; stroke-miterlimit: 4; fill: rgb(159,230,155); fill-rule: nonzero; opacity: 1;"  cx="0" cy="0" r="6" />
</g>
		<g transform="matrix(1 0 0 1 -198.23 275.72)"  >
<polygon style="stroke: none; stroke-width: 1; stroke-dasharray: none; stroke-linecap: butt; stroke-dashoffset: 0; stroke-linejoin: miter; stroke-miterlimit: 4; fill: rgb(255,182,182); fill-rule: nonzero; opacity: 1;"  points="-6.68,17.45 2.37,17.45 6.68,-17.45 -6.68,-17.45 -6.68,17.45 " />
</g>
		<g transform="matrix(1 0 0 1 -191.31 295.1)"  >
<path style="stroke: none; stroke-width: 1; stroke-dasharray: none; stroke-linecap: butt; stroke-dashoffset: 0; stroke-linejoin: miter; stroke-miterlimit: 4; fill: rgb(47,46,65); fill-rule: nonzero; opacity: 1;"  transform=" translate(-408.69, -745.1)" d="M 394.77065 752.61813 l 27.82943 -0.001 v -0.35195 a 10.83259 10.83259 0 0 0 -10.832 -10.83182 h -0.00067 l -5.0834 -3.85653 l -9.4845 3.85712 l -2.42933 0.00008 Z" stroke-linecap="round" />
</g>
		<g transform="matrix(1 0 0 1 -130.23 275.72)"  >
<polygon style="stroke: none; stroke-width: 1; stroke-dasharray: none; stroke-linecap: butt; stroke-dashoffset: 0; stroke-linejoin: miter; stroke-miterlimit: 4; fill: rgb(255,182,182); fill-rule: nonzero; opacity: 1;"  points="-6.68,17.45 2.37,17.45 6.68,-17.45 -6.68,-17.45 -6.68,17.45 " />
</g>
		<g transform="matrix(1 0 0 1 -123.31 295.1)"  >
<path style="stroke: none; stroke-width: 1; stroke-dasharray: none; stroke-linecap: butt; stroke-dashoffset: 0; stroke-linejoin: miter; stroke-miterlimit: 4; fill: rgb(47,46,65); fill-rule: nonzero; opacity: 1;"  transform=" translate(-476.69, -745.1)" d="M 462.77065 752.61813 l 27.82943 -0.001 v -0.35195 a 10.83259 10.83259 0 0 0 -10.832 -10.83182 h -0.00067 l -5.0834 -3.85653 l -9.4845 3.85712 l -2.42933 0.00008 Z" stroke-linecap="round" />
</g>
		<g transform="matrix(1 0 0 1 -184.12 48.77)"  >
<path style="stroke: none; stroke-width: 1; stroke-dasharray: none; stroke-linecap: butt; stroke-dashoffset: 0; stroke-linejoin: miter; stroke-miterlimit: 4; fill: rgb(255,182,182); fill-rule: nonzero; opacity: 1;"  transform=" translate(-415.88, -498.77)" d="M 394.73739 459.21654 l 16.0607 -2.30042 c 5.43182 9.08278 7.3621 33.25826 7.3621 33.25826 l 15.71788 37.3585 a 7.16306 7.16306 0 1 1 -11.16691 5.38 L 396.904 489.42915 Z" stroke-linecap="round" />
</g>
		<g transform="matrix(1 0 0 1 -196.4 -0.69)"  >
<path style="stroke: none; stroke-width: 1; stroke-dasharray: none; stroke-linecap: butt; stroke-dashoffset: 0; stroke-linejoin: miter; stroke-miterlimit: 4; fill: rgb(63,61,86); fill-rule: nonzero; opacity: 1;"  transform=" translate(-403.6, -449.31)" d="M 403.44223 414.62858 l 0 0 a 17.118 17.118 0 0 0 -13.523 22.61171 l 3.40824 9.66029 s -4.29325 29.08717 2.78218 37.29777 l 21.71116 -1.96535 s -3.96951 -14.6749 -0.922 -21.77514 c 1.86635 -4.34834 1.76268 -19.36689 -0.07627 -31.58417 C 415.4183 419.54475 412.76512 413.18476 403.44223 414.62858 Z" stroke-linecap="round" />
</g>
		<g transform="matrix(1 0 0 1 -158.44 167.77)"  >
<path style="stroke: none; stroke-width: 1; stroke-dasharray: none; stroke-linecap: butt; stroke-dashoffset: 0; stroke-linejoin: miter; stroke-miterlimit: 4; fill: rgb(47,46,65); fill-rule: nonzero; opacity: 1;"  transform=" translate(-441.56, -617.77)" d="M 478.315 502.26971 s 16.73494 16.32076 13.16113 20.09035 s -11.74844 9.04976 -4.16113 9.90968 s 10.73494 2.72411 4.16113 4.292 s -5.55782 5.59391 -5.55782 5.59391 s 9.89669 47.114 2.39669 78.11407 c 0 0 -4.17409 84.67176 -6.79339 91.26584 s -3.6193 2.59408 -2.6193 6.59408 s 3 -3 1 4 a 92.51753 92.51753 0 0 0 -2.58731 11.14008 l -19.56229 -3 s -3.14961 -9.92748 0 -12.53378 s 5.97493 -1 2.56227 -6.80315 s -4.41267 2.19685 -3.41267 -5.80315 S 453.72763 653.862 460.315 630.9958 L 448.14169 566.833 L 428.815 633.26971 s -10.25127 81.14015 -13.582 84 s -8.33071 -2.1401 -3.33071 2.8599 s 4.91269 4.14005 5 5 c 0.93127 9.17239 -27.69836 -0.85992 -27.69836 -0.85992 a 51.364 51.364 0 0 0 0 -7 c -0.30164 -2.1401 3.30164 -2.825 0 -4.98253 s 1.61105 -0.01752 1.61105 -0.01752 s 7.383 -59.85992 13 -78 l 6.5 -88.33656 s 0.41266 1.76217 0 -2.52066 s -3.41267 -1.28283 -0.41267 -4.28283 s 5 -4.52869 3 -6.76434 s -7.5172 -6.75864 -4.2586 -9.49715 s 9.67123 -20.59846 9.67123 -20.59846 l 62.50006 0.5" stroke-linecap="round" />
</g>
		<g transform="matrix(1 0 0 1 -157.97 7.04)"  >
<path style="stroke: none; stroke-width: 1; stroke-dasharray: none; stroke-linecap: butt; stroke-dashoffset: 0; stroke-linejoin: miter; stroke-miterlimit: 4; fill: rgb(63,61,86); fill-rule: nonzero; opacity: 1;"  transform=" translate(-442.03, -457.04)" d="M 454.816 403.09591 l -11.26937 -12.68925 l -17.807 1.97855 l -11.40059 15.9549 h 0 a 24.33935 24.33935 0 0 0 -18.5282 27.87941 c 4.42411 25.475 19.459 50.18273 14.49451 62.75218 c -7.53591 19.08011 -7.99572 26.86185 10.04336 24.18682 s 78.47367 -8.84181 66.75676 -20.55872 S 472.815 471.3035 472.815 471.3035 l -0.46985 -44.79438 A 19.90867 19.90867 0 0 0 454.816 403.09591 Z" stroke-linecap="round" />
</g>
		<g transform="matrix(1 0 0 1 -127.12 41.77)"  >
<path style="stroke: none; stroke-width: 1; stroke-dasharray: none; stroke-linecap: butt; stroke-dashoffset: 0; stroke-linejoin: miter; stroke-miterlimit: 4; fill: rgb(255,182,182); fill-rule: nonzero; opacity: 1;"  transform=" translate(-472.88, -491.77)" d="M 451.73739 452.21654 l 16.0607 -2.30042 c 5.43182 9.08278 7.3621 33.25826 7.3621 33.25826 l 15.71788 37.3585 a 7.16306 7.16306 0 1 1 -11.16691 5.38 L 453.904 482.42915 Z" stroke-linecap="round" />
</g>
		<g transform="matrix(1 0 0 1 -139.4 -7.69)"  >
<path style="stroke: none; stroke-width: 1; stroke-dasharray: none; stroke-linecap: butt; stroke-dashoffset: 0; stroke-linejoin: miter; stroke-miterlimit: 4; fill: rgb(63,61,86); fill-rule: nonzero; opacity: 1;"  transform=" translate(-460.6, -442.31)" d="M 460.44223 407.62858 l 0 0 a 17.118 17.118 0 0 0 -13.523 22.61171 l 3.40824 9.66029 s -4.29325 29.08717 2.78218 37.29777 l 21.71116 -1.96535 s -3.96951 -14.6749 -0.922 -21.77514 c 1.86635 -4.34834 1.76268 -19.36689 -0.07627 -31.58417 C 472.4183 412.54475 469.76512 406.18476 460.44223 407.62858 Z" stroke-linecap="round" />
</g>
		<g transform="matrix(1 0 0 1 -170.25 -82.21)"  >
<circle style="stroke: none; stroke-width: 1; stroke-dasharray: none; stroke-linecap: butt; stroke-dashoffset: 0; stroke-linejoin: miter; stroke-miterlimit: 4; fill: rgb(255,182,182); fill-rule: nonzero; opacity: 1;"  cx="0" cy="0" r="21.52319" />
</g>
		<g transform="matrix(1 0 0 1 -171.02 -85.96)"  >
<path style="stroke: none; stroke-width: 1; stroke-dasharray: none; stroke-linecap: butt; stroke-dashoffset: 0; stroke-linejoin: miter; stroke-miterlimit: 4; fill: rgb(47,46,65); fill-rule: nonzero; opacity: 1;"  transform=" translate(-428.98, -364.04)" d="M 425.788 388.86014 c 5.99442 -1.50178 6.19847 -3.21485 12.19289 -4.71663 c 1.90868 -0.47818 4.12018 -1.2315 4.68591 -3.11608 a 4.53926 4.53926 0 0 0 -1.07805 -3.90077 a 36.89886 36.89886 0 0 1 -2.64988 -3.25694 A 6.53728 6.53728 0 0 1 443.451 364.078 c 1.85435 -0.31734 3.76635 0.174 5.63258 -0.06371 c 2.55941 -0.326 6.324 -9.822 4.68325 -11.81313 c -1.59713 -1.93821 -4.21871 -3.09463 -5.0994 -5.44662 c -0.576 -1.53832 -0.26112 -3.25839 -0.5177 -4.88085 c -0.38043 -2.40566 -5.24841 4.255 -4.60047 1.90725 c 1.58942 -5.75926 -25.30386 -6.66626 -28.1036 0.72241 c -1.04637 2.76146 -3.87916 3.20024 -6.05806 5.19349 c -1.42808 1.30639 -4.8437 5.487 -5.33893 7.74 a 16.33179 16.33179 0 0 0 0.23157 6.86328 c 2.23354 10.526 5.92516 19.85478 15.75147 24.23986" stroke-linecap="round" />
</g>
		<g transform="matrix(1 0 0 1 -149.08 302.94)"  >
<path style="stroke: none; stroke-width: 1; stroke-dasharray: none; stroke-linecap: butt; stroke-dashoffset: 0; stroke-linejoin: miter; stroke-miterlimit: 4; fill: rgb(202,202,202); fill-rule: nonzero; opacity: 1;"  transform=" translate(-450.92, -752.94)" d="M 256.06 753.982 l 389.72564 0.30734 a 1.19069 1.19069 0 1 0 0 -2.38137 L 256.06 751.60064 a 1.19069 1.19069 0 1 0 0 2.38137 Z" stroke-linecap="round" />
</g>
</g>
</g>
</svg>